<svg xmlns="http://www.w3.org/2000/svg" version="1.1"
     xmlns:xlink="http://www.w3.org/1999/xlink"
 width="5260" height="2260" viewBox="0 0 5260 2260">
  <defs>
    <marker id="arrow" markerWidth="10" markerHeight="10" refX="9" refY="3" orient="auto" markerUnits="strokeWidth">
      <path d="M0,0 L0,6 L9,3 z" fill="#55606c"/>
    </marker>
  </defs>
  <rect x="0" y="0" width="100%" height="100%" fill="#ffffff"/>
  <polyline fill="none" stroke="#55606c" stroke-width="2" marker-end="url(#arrow)" points="156,240 220,240 220,280 320,280"/>
  <polyline fill="none" stroke="#55606c" stroke-width="2" marker-end="url(#arrow)" points="420,280 480,280 480,454 611,454"/>
  <polyline fill="none" stroke="#55606c" stroke-width="2" marker-end="url(#arrow)" points="649,466 700,466 700,480 820,480"/>
  <polyline fill="none" stroke="#55606c" stroke-width="2" marker-end="url(#arrow)" points="640,475 720,475 720,640 820,640"/>
  <polyline fill="none" stroke="#55606c" stroke-width="2" marker-end="url(#arrow)" points="920,480 980,480 980,615 1090,615"/>
  <polyline fill="none" stroke="#55606c" stroke-width="2" marker-end="url(#arrow)" points="1126,621 1180,621 1180,580 1300,580"/>
  <polyline fill="none" stroke="#55606c" stroke-width="2" marker-end="url(#arrow)" points="1119,636 1200,636 1200,774 1311,774"/>
  <polyline fill="none" stroke="#55606c" stroke-width="2" marker-end="url(#arrow)" points="1400,580 1580,580"/>
  <polyline fill="none" stroke="#55606c" stroke-width="2" marker-end="url(#arrow)" points="1680,580 1740,580 1740,700 1840,700"/>
  <polyline fill="none" stroke="#55606c" stroke-width="2" marker-end="url(#arrow)" points="1350,785 1420,785 1420,780 1580,780"/>
  <polyline fill="none" stroke="#55606c" stroke-width="2" marker-end="url(#arrow)" points="1348,787 1440,787 1440,803 1582,803"/>
  <polyline fill="none" stroke="#55606c" stroke-width="2" marker-end="url(#arrow)" points="1680,780 1760,780 1760,793 1618,793"/>
  <polyline fill="none" stroke="#55606c" stroke-width="2" marker-end="url(#arrow)" points="920,640 1000,640 1000,718 1087,718"/>
  <polyline fill="none" stroke="#55606c" stroke-width="2" marker-end="url(#arrow)" points="1940,700 2000,700 2000,894 2131,894"/>
  <polyline fill="none" stroke="#55606c" stroke-width="2" marker-end="url(#arrow)" points="2169,906 2220,906 2220,920 2340,920"/>
  <polyline fill="none" stroke="#55606c" stroke-width="2" marker-end="url(#arrow)" points="2162,913 2240,913 2240,997 2348,997"/>
  <polyline fill="none" stroke="#55606c" stroke-width="2" marker-end="url(#arrow)" points="2440,920 2500,920 2500,1020 2600,1020"/>
  <polyline fill="none" stroke="#55606c" stroke-width="2" marker-end="url(#arrow)" points="2700,1020 2760,1020 2760,1214 2891,1214"/>
  <polyline fill="none" stroke="#55606c" stroke-width="2" marker-end="url(#arrow)" points="1628,807 1700,807 1700,823 1842,823"/>
  <polyline fill="none" stroke="#55606c" stroke-width="2" marker-end="url(#arrow)" points="2927,1228 2980,1228 2980,1260 3100,1260"/>
  <polyline fill="none" stroke="#55606c" stroke-width="2" marker-end="url(#arrow)" points="2919,1236 3000,1236 3000,1420 3100,1420"/>
  <polyline fill="none" stroke="#55606c" stroke-width="2" marker-end="url(#arrow)" points="3200,1260 3360,1260"/>
  <polyline fill="none" stroke="#55606c" stroke-width="2" marker-end="url(#arrow)" points="3200,1420 3280,1420 3280,1460 3360,1460"/>
  <polyline fill="none" stroke="#55606c" stroke-width="2" marker-end="url(#arrow)" points="3460,1260 3520,1260 3520,1265 3640,1265"/>
  <polyline fill="none" stroke="#55606c" stroke-width="2" marker-end="url(#arrow)" points="3460,1460 3540,1460 3540,1520 3645,1520"/>
  <polyline fill="none" stroke="#55606c" stroke-width="2" marker-end="url(#arrow)" points="3960,1580 4020,1580 4020,1560 4120,1560"/>
  <polyline fill="none" stroke="#55606c" stroke-width="2" marker-end="url(#arrow)" points="4220,1560 4280,1560 4280,1600 4400,1600"/>
  <polyline fill="none" stroke="#55606c" stroke-width="2" marker-end="url(#arrow)" points="4500,1600 4560,1600 4560,1531 4666,1531"/>
  <polyline fill="none" stroke="#55606c" stroke-width="2" marker-end="url(#arrow)" points="4980,1440 5020,1440 5020,1740 3600,1740 3600,1268 3687,1268"/>
  <polyline fill="none" stroke="#55606c" stroke-width="2" marker-end="url(#arrow)" points="3644,1261 3760,1261 3760,1840 2280,1840 2280,1009 2386,1009"/>
  <polyline fill="none" stroke="#55606c" stroke-width="2" marker-end="url(#arrow)" points="2347,998 2480,998 2480,1920 1760,1920 1760,832 1883,832"/>
  <polyline fill="none" stroke="#55606c" stroke-width="2" marker-end="url(#arrow)" points="1843,822 2000,822 2000,2020 980,2020 980,728 1127,728"/>
  <polyline fill="none" stroke="#55606c" stroke-width="2" marker-end="url(#arrow)" points="1130,725 1220,725 1220,720 5060,720"/>
  <polyline fill="none" stroke="#55606c" stroke-width="2" marker-end="url(#arrow)" points="4704,1519 4760,1519 4760,1440 4880,1440"/>
  <polyline fill="none" stroke="#55606c" stroke-width="2" marker-end="url(#arrow)" points="4660,1525 4840,1525 4840,2100 3520,2100 3520,1525 3690,1525"/>
  <polyline fill="none" stroke="#55606c" stroke-width="2" marker-end="url(#arrow)" points="3685,1530 3740,1530 3740,1580 3860,1580"/>
  <circle cx="138" cy="238" r="18" fill="#ffffff" stroke="#203040" stroke-width="3"/>
  <text x="138" y="278" font-family="Segoe UI, Arial, sans-serif" font-size="12" text-anchor="middle" fill="#203040">Default_init</text>
  <rect x="320" y="240" width="100" height="80" rx="12" ry="12" fill="#f6fbff" stroke="#2b5876" stroke-width="2"/>
  <text x="370" y="342" font-family="Segoe UI, Arial, sans-serif" font-size="12" text-anchor="middle" fill="#203040">Verificar Cliente</text>
  <polygon points="625,440 650,465 625,490 600,465" fill="#fff7e0" stroke="#8a6d1f" stroke-width="2"/>
  <text x="625" y="512" font-family="Segoe UI, Arial, sans-serif" font-size="12" text-anchor="middle" fill="#203040">G0</text>
  <rect x="820" y="440" width="100" height="80" rx="12" ry="12" fill="#f6fbff" stroke="#2b5876" stroke-width="2"/>
  <text x="870" y="542" font-family="Segoe UI, Arial, sans-serif" font-size="12" text-anchor="middle" fill="#203040">Verificar Histórico de Pagame...</text>
  <polygon points="1105,600 1130,625 1105,650 1080,625" fill="#fff7e0" stroke="#8a6d1f" stroke-width="2"/>
  <text x="1105" y="672" font-family="Segoe UI, Arial, sans-serif" font-size="12" text-anchor="middle" fill="#203040">G1</text>
  <rect x="1300" y="540" width="100" height="80" rx="12" ry="12" fill="#f6fbff" stroke="#2b5876" stroke-width="2"/>
  <text x="1350" y="642" font-family="Segoe UI, Arial, sans-serif" font-size="12" text-anchor="middle" fill="#203040">Criar Novo Cliente</text>
  <rect x="1580" y="540" width="100" height="80" rx="12" ry="12" fill="#f6fbff" stroke="#2b5876" stroke-width="2"/>
  <text x="1630" y="642" font-family="Segoe UI, Arial, sans-serif" font-size="12" text-anchor="middle" fill="#203040">Verificar Disponibilidade</text>
  <polygon points="1325,760 1350,785 1325,810 1300,785" fill="#fff7e0" stroke="#8a6d1f" stroke-width="2"/>
  <text x="1325" y="832" font-family="Segoe UI, Arial, sans-serif" font-size="12" text-anchor="middle" fill="#203040">G2</text>
  <rect x="1580" y="740" width="100" height="80" rx="12" ry="12" fill="#f6fbff" stroke="#2b5876" stroke-width="2"/>
  <text x="1630" y="842" font-family="Segoe UI, Arial, sans-serif" font-size="12" text-anchor="middle" fill="#203040">Enviar Mensagem de Recusa</text>
  <rect x="820" y="600" width="100" height="80" rx="12" ry="12" fill="#f6fbff" stroke="#2b5876" stroke-width="2"/>
  <text x="870" y="702" font-family="Segoe UI, Arial, sans-serif" font-size="12" text-anchor="middle" fill="#203040">Verificar Tipo de Cliente</text>
  <rect x="1840" y="660" width="100" height="80" rx="12" ry="12" fill="#f6fbff" stroke="#2b5876" stroke-width="2"/>
  <text x="1890" y="762" font-family="Segoe UI, Arial, sans-serif" font-size="12" text-anchor="middle" fill="#203040">Enviar Confirmação ao Cliente</text>
  <polygon points="2145,880 2170,905 2145,930 2120,905" fill="#fff7e0" stroke="#8a6d1f" stroke-width="2"/>
  <text x="2145" y="952" font-family="Segoe UI, Arial, sans-serif" font-size="12" text-anchor="middle" fill="#203040">G4</text>
  <rect x="2340" y="880" width="100" height="80" rx="12" ry="12" fill="#f6fbff" stroke="#2b5876" stroke-width="2"/>
  <text x="2390" y="982" font-family="Segoe UI, Arial, sans-serif" font-size="12" text-anchor="middle" fill="#203040">Produzir Produtos em Falta</text>
  <rect x="2600" y="980" width="100" height="80" rx="12" ry="12" fill="#f6fbff" stroke="#2b5876" stroke-width="2"/>
  <text x="2650" y="1082" font-family="Segoe UI, Arial, sans-serif" font-size="12" text-anchor="middle" fill="#203040">Preparar para Entrega</text>
  <polygon points="1605,780 1630,805 1605,830 1580,805" fill="#fff7e0" stroke="#8a6d1f" stroke-width="2"/>
  <text x="1605" y="852" font-family="Segoe UI, Arial, sans-serif" font-size="12" text-anchor="middle" fill="#203040">XORCLOSE20</text>
  <polygon points="2905,1200 2930,1225 2905,1250 2880,1225" fill="#fff7e0" stroke="#8a6d1f" stroke-width="2"/>
  <text x="2905" y="1272" font-family="Segoe UI, Arial, sans-serif" font-size="12" text-anchor="middle" fill="#203040">PAR</text>
  <rect x="3100" y="1220" width="100" height="80" rx="12" ry="12" fill="#f6fbff" stroke="#2b5876" stroke-width="2"/>
  <text x="3150" y="1322" font-family="Segoe UI, Arial, sans-serif" font-size="12" text-anchor="middle" fill="#203040">Embalar os Produtos</text>
  <rect x="3100" y="1380" width="100" height="80" rx="12" ry="12" fill="#f6fbff" stroke="#2b5876" stroke-width="2"/>
  <text x="3150" y="1482" font-family="Segoe UI, Arial, sans-serif" font-size="12" text-anchor="middle" fill="#203040">Preparar Fatura</text>
  <rect x="3360" y="1220" width="100" height="80" rx="12" ry="12" fill="#f6fbff" stroke="#2b5876" stroke-width="2"/>
  <text x="3410" y="1322" font-family="Segoe UI, Arial, sans-serif" font-size="12" text-anchor="middle" fill="#203040">Entregar os Produtos</text>
  <rect x="3360" y="1420" width="100" height="80" rx="12" ry="12" fill="#f6fbff" stroke="#2b5876" stroke-width="2"/>
  <text x="3410" y="1522" font-family="Segoe UI, Arial, sans-serif" font-size="12" text-anchor="middle" fill="#203040">Enviar a Fatura ao Cliente</text>
  <rect x="3860" y="1540" width="100" height="80" rx="12" ry="12" fill="#f6fbff" stroke="#2b5876" stroke-width="2"/>
  <text x="3910" y="1642" font-family="Segoe UI, Arial, sans-serif" font-size="12" text-anchor="middle" fill="#203040">Verificar Pagamento</text>
  <rect x="4120" y="1520" width="100" height="80" rx="12" ry="12" fill="#f6fbff" stroke="#2b5876" stroke-width="2"/>
  <text x="4170" y="1622" font-family="Segoe UI, Arial, sans-serif" font-size="12" text-anchor="middle" fill="#203040">Encerrar Pedido</text>
  <rect x="4400" y="1560" width="100" height="80" rx="12" ry="12" fill="#f6fbff" stroke="#2b5876" stroke-width="2"/>
  <text x="4450" y="1662" font-family="Segoe UI, Arial, sans-serif" font-size="12" text-anchor="middle" fill="#203040">Verificar os Lembretes</text>
  <rect x="4880" y="1400" width="100" height="80" rx="12" ry="12" fill="#f6fbff" stroke="#2b5876" stroke-width="2"/>
  <text x="4930" y="1502" font-family="Segoe UI, Arial, sans-serif" font-size="12" text-anchor="middle" fill="#203040">Processo de Cobrança</text>
  <polygon points="3665,1240 3690,1265 3665,1290 3640,1265" fill="#fff7e0" stroke="#8a6d1f" stroke-width="2"/>
  <text x="3665" y="1312" font-family="Segoe UI, Arial, sans-serif" font-size="12" text-anchor="middle" fill="#203040">PARCLOSE31</text>
  <polygon points="2365,980 2390,1005 2365,1030 2340,1005" fill="#fff7e0" stroke="#8a6d1f" stroke-width="2"/>
  <text x="2365" y="1052" font-family="Segoe UI, Arial, sans-serif" font-size="12" text-anchor="middle" fill="#203040">XORCLOSE32</text>
  <polygon points="1865,800 1890,825 1865,850 1840,825" fill="#fff7e0" stroke="#8a6d1f" stroke-width="2"/>
  <text x="1865" y="872" font-family="Segoe UI, Arial, sans-serif" font-size="12" text-anchor="middle" fill="#203040">XORCLOSE33</text>
  <polygon points="1105,700 1130,725 1105,750 1080,725" fill="#fff7e0" stroke="#8a6d1f" stroke-width="2"/>
  <text x="1105" y="772" font-family="Segoe UI, Arial, sans-serif" font-size="12" text-anchor="middle" fill="#203040">XORCLOSE34</text>
  <circle cx="5078" cy="718" r="18" fill="#ffffff" stroke="#203040" stroke-width="3"/>
  <text x="5078" y="758" font-family="Segoe UI, Arial, sans-serif" font-size="12" text-anchor="middle" fill="#203040">END_EVENT</text>
  <polygon points="4685,1500 4710,1525 4685,1550 4660,1525" fill="#fff7e0" stroke="#8a6d1f" stroke-width="2"/>
  <text x="4685" y="1572" font-family="Segoe UI, Arial, sans-serif" font-size="12" text-anchor="middle" fill="#203040">XOR_JMPAA_Verificar os Lembretes</text>
  <polygon points="3665,1500 3690,1525 3665,1550 3640,1525" fill="#fff7e0" stroke="#8a6d1f" stroke-width="2"/>
  <text x="3665" y="1572" font-family="Segoe UI, Arial, sans-serif" font-size="12" text-anchor="middle" fill="#203040">XOR_JMPBB_Verificar Pagamento</text>
</svg>
