<svg xmlns="http://www.w3.org/2000/svg" version="1.1"
     xmlns:xlink="http://www.w3.org/1999/xlink"
 width="5160" height="2360" viewBox="0 0 5160 2360">
  <defs>
    <marker id="arrow" markerWidth="10" markerHeight="10" refX="9" refY="3" orient="auto" markerUnits="strokeWidth">
      <path d="M0,0 L0,6 L9,3 z" fill="#55606c"/>
    </marker>
  </defs>
  <rect x="0" y="0" width="100%" height="100%" fill="#ffffff"/>
  <polyline fill="none" stroke="#55606c" stroke-width="2" marker-end="url(#arrow)" points="156,240 220,240 220,280 320,280"/>
  <polyline fill="none" stroke="#55606c" stroke-width="2" marker-end="url(#arrow)" points="420,280 480,280 480,454 611,454"/>
  <polyline fill="none" stroke="#55606c" stroke-width="2" marker-end="url(#arrow)" points="645,460 700,460 700,400 820,400"/>
  <polyline fill="none" stroke="#55606c" stroke-width="2" marker-end="url(#arrow)" points="642,473 720,473 720,580 820,580"/>
  <polyline fill="none" stroke="#55606c" stroke-width="2" marker-end="url(#arrow)" points="920,400 980,400 980,574 1091,574"/>
  <polyline fill="none" stroke="#55606c" stroke-width="2" marker-end="url(#arrow)" points="1125,580 1180,580 1180,520 1300,520"/>
  <polyline fill="none" stroke="#55606c" stroke-width="2" marker-end="url(#arrow)" points="1122,593 1200,593 1200,677 1308,677"/>
  <polyline fill="none" stroke="#55606c" stroke-width="2" marker-end="url(#arrow)" points="1400,520 1460,520 1460,760 1580,760"/>
  <polyline fill="none" stroke="#55606c" stroke-width="2" marker-end="url(#arrow)" points="920,580 1000,580 1000,793 1092,793"/>
  <polyline fill="none" stroke="#55606c" stroke-width="2" marker-end="url(#arrow)" points="1680,760 1740,760 1740,973 1852,973"/>
  <polyline fill="none" stroke="#55606c" stroke-width="2" marker-end="url(#arrow)" points="1344,679 1420,679 1420,580 1580,580"/>
  <polyline fill="none" stroke="#55606c" stroke-width="2" marker-end="url(#arrow)" points="1338,697 1440,697 1440,913 1592,913"/>
  <polyline fill="none" stroke="#55606c" stroke-width="2" marker-end="url(#arrow)" points="1680,580 1760,580 1760,902 1607,902"/>
  <polyline fill="none" stroke="#55606c" stroke-width="2" marker-end="url(#arrow)" points="1880,975 1940,975 1940,820 2060,820"/>
  <polyline fill="none" stroke="#55606c" stroke-width="2" marker-end="url(#arrow)" points="1890,985 2060,985"/>
  <polyline fill="none" stroke="#55606c" stroke-width="2" marker-end="url(#arrow)" points="2160,820 2220,820 2220,1000 2340,1000"/>
  <polyline fill="none" stroke="#55606c" stroke-width="2" marker-end="url(#arrow)" points="2440,1000 2500,1000 2500,1291 2614,1291"/>
  <polyline fill="none" stroke="#55606c" stroke-width="2" marker-end="url(#arrow)" points="2645,1300 2700,1300 2700,1240 2820,1240"/>
  <polyline fill="none" stroke="#55606c" stroke-width="2" marker-end="url(#arrow)" points="2642,1313 2720,1313 2720,1420 2820,1420"/>
  <polyline fill="none" stroke="#55606c" stroke-width="2" marker-end="url(#arrow)" points="2920,1240 2980,1240 2980,1320 3100,1320"/>
  <polyline fill="none" stroke="#55606c" stroke-width="2" marker-end="url(#arrow)" points="2920,1420 3000,1420 3000,1500 3100,1500"/>
  <polyline fill="none" stroke="#55606c" stroke-width="2" marker-end="url(#arrow)" points="1624,919 1700,919 1700,851 1846,851"/>
  <polyline fill="none" stroke="#55606c" stroke-width="2" marker-end="url(#arrow)" points="3200,1500 3260,1500 3260,1713 3372,1713"/>
  <polyline fill="none" stroke="#55606c" stroke-width="2" marker-end="url(#arrow)" points="3200,1320 3280,1320 3280,1709 3376,1709"/>
  <polyline fill="none" stroke="#55606c" stroke-width="2" marker-end="url(#arrow)" points="3397,1712 3460,1712 3460,1498 3593,1498"/>
  <polyline fill="none" stroke="#55606c" stroke-width="2" marker-end="url(#arrow)" points="3900,1420 3960,1420 3960,1388 4083,1388"/>
  <polyline fill="none" stroke="#55606c" stroke-width="2" marker-end="url(#arrow)" points="4125,1380 4180,1380 4180,1320 4300,1320"/>
  <polyline fill="none" stroke="#55606c" stroke-width="2" marker-end="url(#arrow)" points="4122,1393 4200,1393 4200,1500 4300,1500"/>
  <polyline fill="none" stroke="#55606c" stroke-width="2" marker-end="url(#arrow)" points="4400,1320 4460,1320 4460,1270 4565,1270"/>
  <polyline fill="none" stroke="#55606c" stroke-width="2" marker-end="url(#arrow)" points="4400,1500 4480,1500 4480,1431 4566,1431"/>
  <polyline fill="none" stroke="#55606c" stroke-width="2" marker-end="url(#arrow)" points="4880,1360 4920,1360 4920,1840 4520,1840 4520,1272 4603,1272"/>
  <polyline fill="none" stroke="#55606c" stroke-width="2" marker-end="url(#arrow)" points="4563,1262 4680,1262 4680,1940 2000,1940 2000,988 2107,988"/>
  <polyline fill="none" stroke="#55606c" stroke-width="2" marker-end="url(#arrow)" points="2100,975 2180,975 2180,780 2340,780"/>
  <polyline fill="none" stroke="#55606c" stroke-width="2" marker-end="url(#arrow)" points="2440,780 2520,780 2520,2020 1760,2020 1760,842 1887,842"/>
  <polyline fill="none" stroke="#55606c" stroke-width="2" marker-end="url(#arrow)" points="1841,844 2000,844 2000,2120 980,2120 980,806 1129,806"/>
  <polyline fill="none" stroke="#55606c" stroke-width="2" marker-end="url(#arrow)" points="1130,805 1220,805 1220,800 4960,800"/>
  <polyline fill="none" stroke="#55606c" stroke-width="2" marker-end="url(#arrow)" points="4605,1420 4660,1420 4660,1360 4780,1360"/>
  <polyline fill="none" stroke="#55606c" stroke-width="2" marker-end="url(#arrow)" points="4561,1426 4740,1426 4740,2200 3460,2200 3460,1484 3629,1484"/>
  <polyline fill="none" stroke="#55606c" stroke-width="2" marker-end="url(#arrow)" points="3625,1480 3680,1480 3680,1420 3800,1420"/>
  <circle cx="138" cy="238" r="18" fill="#ffffff" stroke="#203040" stroke-width="3"/>
  <text x="138" y="278" font-family="Segoe UI, Arial, sans-serif" font-size="12" text-anchor="middle" fill="#203040">Default_init</text>
  <rect x="320" y="240" width="100" height="80" rx="12" ry="12" fill="#f6fbff" stroke="#2b5876" stroke-width="2"/>
  <text x="370" y="342" font-family="Segoe UI, Arial, sans-serif" font-size="12" text-anchor="middle" fill="#203040">Verificar Cliente</text>
  <polygon points="625,440 650,465 625,490 600,465" fill="#fff7e0" stroke="#8a6d1f" stroke-width="2"/>
  <text x="625" y="512" font-family="Segoe UI, Arial, sans-serif" font-size="12" text-anchor="middle" fill="#203040">G0</text>
  <rect x="820" y="360" width="100" height="80" rx="12" ry="12" fill="#f6fbff" stroke="#2b5876" stroke-width="2"/>
  <text x="870" y="462" font-family="Segoe UI, Arial, sans-serif" font-size="12" text-anchor="middle" fill="#203040">Verificar Histórico de Pagame...</text>
  <polygon points="1105,560 1130,585 1105,610 1080,585" fill="#fff7e0" stroke="#8a6d1f" stroke-width="2"/>
  <text x="1105" y="632" font-family="Segoe UI, Arial, sans-serif" font-size="12" text-anchor="middle" fill="#203040">G1</text>
  <rect x="1300" y="480" width="100" height="80" rx="12" ry="12" fill="#f6fbff" stroke="#2b5876" stroke-width="2"/>
  <text x="1350" y="582" font-family="Segoe UI, Arial, sans-serif" font-size="12" text-anchor="middle" fill="#203040">Criar Novo Cliente</text>
  <rect x="820" y="540" width="100" height="80" rx="12" ry="12" fill="#f6fbff" stroke="#2b5876" stroke-width="2"/>
  <text x="870" y="642" font-family="Segoe UI, Arial, sans-serif" font-size="12" text-anchor="middle" fill="#203040">Verificar Tipo de Cliente</text>
  <rect x="1580" y="720" width="100" height="80" rx="12" ry="12" fill="#f6fbff" stroke="#2b5876" stroke-width="2"/>
  <text x="1630" y="822" font-family="Segoe UI, Arial, sans-serif" font-size="12" text-anchor="middle" fill="#203040">Verificar Disponibilidade</text>
  <polygon points="1325,660 1350,685 1325,710 1300,685" fill="#fff7e0" stroke="#8a6d1f" stroke-width="2"/>
  <text x="1325" y="732" font-family="Segoe UI, Arial, sans-serif" font-size="12" text-anchor="middle" fill="#203040">G2</text>
  <rect x="1580" y="540" width="100" height="80" rx="12" ry="12" fill="#f6fbff" stroke="#2b5876" stroke-width="2"/>
  <text x="1630" y="642" font-family="Segoe UI, Arial, sans-serif" font-size="12" text-anchor="middle" fill="#203040">Enviar Mensagem de Recusa</text>
  <polygon points="1865,960 1890,985 1865,1010 1840,985" fill="#fff7e0" stroke="#8a6d1f" stroke-width="2"/>
  <text x="1865" y="1032" font-family="Segoe UI, Arial, sans-serif" font-size="12" text-anchor="middle" fill="#203040">G3</text>
  <rect x="2060" y="780" width="100" height="80" rx="12" ry="12" fill="#f6fbff" stroke="#2b5876" stroke-width="2"/>
  <text x="2110" y="882" font-family="Segoe UI, Arial, sans-serif" font-size="12" text-anchor="middle" fill="#203040">Produzir Produtos em Falta</text>
  <rect x="2340" y="960" width="100" height="80" rx="12" ry="12" fill="#f6fbff" stroke="#2b5876" stroke-width="2"/>
  <text x="2390" y="1062" font-family="Segoe UI, Arial, sans-serif" font-size="12" text-anchor="middle" fill="#203040">Preparar para Entrega</text>
  <polygon points="2625,1280 2650,1305 2625,1330 2600,1305" fill="#fff7e0" stroke="#8a6d1f" stroke-width="2"/>
  <text x="2625" y="1352" font-family="Segoe UI, Arial, sans-serif" font-size="12" text-anchor="middle" fill="#203040">PAR</text>
  <rect x="2820" y="1200" width="100" height="80" rx="12" ry="12" fill="#f6fbff" stroke="#2b5876" stroke-width="2"/>
  <text x="2870" y="1302" font-family="Segoe UI, Arial, sans-serif" font-size="12" text-anchor="middle" fill="#203040">Embalar os Produtos</text>
  <rect x="2820" y="1380" width="100" height="80" rx="12" ry="12" fill="#f6fbff" stroke="#2b5876" stroke-width="2"/>
  <text x="2870" y="1482" font-family="Segoe UI, Arial, sans-serif" font-size="12" text-anchor="middle" fill="#203040">Preparar Fatura</text>
  <polygon points="1605,900 1630,925 1605,950 1580,925" fill="#fff7e0" stroke="#8a6d1f" stroke-width="2"/>
  <text x="1605" y="972" font-family="Segoe UI, Arial, sans-serif" font-size="12" text-anchor="middle" fill="#203040">XORCLOSE22</text>
  <rect x="3100" y="1460" width="100" height="80" rx="12" ry="12" fill="#f6fbff" stroke="#2b5876" stroke-width="2"/>
  <text x="3150" y="1562" font-family="Segoe UI, Arial, sans-serif" font-size="12" text-anchor="middle" fill="#203040">Enviar a Fatura ao Cliente</text>
  <rect x="3100" y="1280" width="100" height="80" rx="12" ry="12" fill="#f6fbff" stroke="#2b5876" stroke-width="2"/>
  <text x="3150" y="1382" font-family="Segoe UI, Arial, sans-serif" font-size="12" text-anchor="middle" fill="#203040">Entregar os Produtos</text>
  <polygon points="3385,1700 3410,1725 3385,1750 3360,1725" fill="#fff7e0" stroke="#8a6d1f" stroke-width="2"/>
  <text x="3385" y="1772" font-family="Segoe UI, Arial, sans-serif" font-size="12" text-anchor="middle" fill="#203040">PARCLOSE26</text>
  <rect x="3800" y="1380" width="100" height="80" rx="12" ry="12" fill="#f6fbff" stroke="#2b5876" stroke-width="2"/>
  <text x="3850" y="1482" font-family="Segoe UI, Arial, sans-serif" font-size="12" text-anchor="middle" fill="#203040">Verificar Pagamento</text>
  <polygon points="4105,1360 4130,1385 4105,1410 4080,1385" fill="#fff7e0" stroke="#8a6d1f" stroke-width="2"/>
  <text x="4105" y="1432" font-family="Segoe UI, Arial, sans-serif" font-size="12" text-anchor="middle" fill="#203040">G4</text>
  <rect x="4300" y="1280" width="100" height="80" rx="12" ry="12" fill="#f6fbff" stroke="#2b5876" stroke-width="2"/>
  <text x="4350" y="1382" font-family="Segoe UI, Arial, sans-serif" font-size="12" text-anchor="middle" fill="#203040">Encerrar Pedido</text>
  <rect x="4300" y="1460" width="100" height="80" rx="12" ry="12" fill="#f6fbff" stroke="#2b5876" stroke-width="2"/>
  <text x="4350" y="1562" font-family="Segoe UI, Arial, sans-serif" font-size="12" text-anchor="middle" fill="#203040">Verificar os Lembretes</text>
  <rect x="4780" y="1320" width="100" height="80" rx="12" ry="12" fill="#f6fbff" stroke="#2b5876" stroke-width="2"/>
  <text x="4830" y="1422" font-family="Segoe UI, Arial, sans-serif" font-size="12" text-anchor="middle" fill="#203040">Processo de Cobrança</text>
  <polygon points="4585,1240 4610,1265 4585,1290 4560,1265" fill="#fff7e0" stroke="#8a6d1f" stroke-width="2"/>
  <text x="4585" y="1312" font-family="Segoe UI, Arial, sans-serif" font-size="12" text-anchor="middle" fill="#203040">XORCLOSE32</text>
  <polygon points="2085,960 2110,985 2085,1010 2060,985" fill="#fff7e0" stroke="#8a6d1f" stroke-width="2"/>
  <text x="2085" y="1032" font-family="Segoe UI, Arial, sans-serif" font-size="12" text-anchor="middle" fill="#203040">XORCLOSE33</text>
  <rect x="2340" y="740" width="100" height="80" rx="12" ry="12" fill="#f6fbff" stroke="#2b5876" stroke-width="2"/>
  <text x="2390" y="842" font-family="Segoe UI, Arial, sans-serif" font-size="12" text-anchor="middle" fill="#203040">Enviar Confirmação ao Cliente</text>
  <polygon points="1865,820 1890,845 1865,870 1840,845" fill="#fff7e0" stroke="#8a6d1f" stroke-width="2"/>
  <text x="1865" y="892" font-family="Segoe UI, Arial, sans-serif" font-size="12" text-anchor="middle" fill="#203040">XORCLOSE35</text>
  <polygon points="1105,780 1130,805 1105,830 1080,805" fill="#fff7e0" stroke="#8a6d1f" stroke-width="2"/>
  <text x="1105" y="852" font-family="Segoe UI, Arial, sans-serif" font-size="12" text-anchor="middle" fill="#203040">XORCLOSE36</text>
  <circle cx="4978" cy="798" r="18" fill="#ffffff" stroke="#203040" stroke-width="3"/>
  <text x="4978" y="838" font-family="Segoe UI, Arial, sans-serif" font-size="12" text-anchor="middle" fill="#203040">END_EVENT</text>
  <polygon points="4585,1400 4610,1425 4585,1450 4560,1425" fill="#fff7e0" stroke="#8a6d1f" stroke-width="2"/>
  <text x="4585" y="1472" font-family="Segoe UI, Arial, sans-serif" font-size="12" text-anchor="middle" fill="#203040">XOR_JMPAA_Verificar os Lembretes</text>
  <polygon points="3605,1460 3630,1485 3605,1510 3580,1485" fill="#fff7e0" stroke="#8a6d1f" stroke-width="2"/>
  <text x="3605" y="1532" font-family="Segoe UI, Arial, sans-serif" font-size="12" text-anchor="middle" fill="#203040">XOR_JMPBB_Verificar Pagamento</text>
</svg>
