<svg xmlns="http://www.w3.org/2000/svg" version="1.1"
     xmlns:xlink="http://www.w3.org/1999/xlink"
 width="4060" height="1240" viewBox="0 0 4060 1240">
  <defs>
    <marker id="arrow" markerWidth="10" markerHeight="10" refX="9" refY="3" orient="auto" markerUnits="strokeWidth">
      <path d="M0,0 L0,6 L9,3 z" fill="#55606c"/>
    </marker>
  </defs>
  <rect x="0" y="0" width="100%" height="100%" fill="#ffffff"/>
  <polyline fill="none" stroke="#55606c" stroke-width="2" marker-end="url(#arrow)" points="156,220 220,220 220,260 320,260"/>
  <polyline fill="none" stroke="#55606c" stroke-width="2" marker-end="url(#arrow)" points="420,260 480,260 480,415 610,415"/>
  <polyline fill="none" stroke="#55606c" stroke-width="2" marker-end="url(#arrow)" points="645,420 700,420 700,360 820,360"/>
  <polyline fill="none" stroke="#55606c" stroke-width="2" marker-end="url(#arrow)" points="642,433 720,433 720,540 820,540"/>
  <polyline fill="none" stroke="#55606c" stroke-width="2" marker-end="url(#arrow)" points="920,360 980,360 980,457 1088,457"/>
  <polyline fill="none" stroke="#55606c" stroke-width="2" marker-end="url(#arrow)" points="920,540 1000,540 1000,620 1080,620"/>
  <polyline fill="none" stroke="#55606c" stroke-width="2" marker-end="url(#arrow)" points="1126,461 1180,461 1180,400 1360,400"/>
  <polyline fill="none" stroke="#55606c" stroke-width="2" marker-end="url(#arrow)" points="1123,472 1200,472 1200,580 1360,580"/>
  <polyline fill="none" stroke="#55606c" stroke-width="2" marker-end="url(#arrow)" points="1180,620 1280,620 1280,760 1360,760"/>
  <polyline fill="none" stroke="#55606c" stroke-width="2" marker-end="url(#arrow)" points="1460,400 1520,400 1520,574 1631,574"/>
  <polyline fill="none" stroke="#55606c" stroke-width="2" marker-end="url(#arrow)" points="1460,580 1540,580 1540,584 1621,584"/>
  <polyline fill="none" stroke="#55606c" stroke-width="2" marker-end="url(#arrow)" points="1460,760 1560,760 1560,740 1620,740"/>
  <polyline fill="none" stroke="#55606c" stroke-width="2" marker-end="url(#arrow)" points="1720,740 1780,740 1780,614 1909,614"/>
  <polyline fill="none" stroke="#55606c" stroke-width="2" marker-end="url(#arrow)" points="1668,587 1740,587 1740,603 1902,603"/>
  <polyline fill="none" stroke="#55606c" stroke-width="2" marker-end="url(#arrow)" points="1945,600 2000,600 2000,550 2125,550"/>
  <polyline fill="none" stroke="#55606c" stroke-width="2" marker-end="url(#arrow)" points="2165,540 2220,540 2220,480 2340,480"/>
  <polyline fill="none" stroke="#55606c" stroke-width="2" marker-end="url(#arrow)" points="2162,553 2240,553 2240,660 2340,660"/>
  <polyline fill="none" stroke="#55606c" stroke-width="2" marker-end="url(#arrow)" points="2440,480 2500,480 2500,680 2600,680"/>
  <polyline fill="none" stroke="#55606c" stroke-width="2" marker-end="url(#arrow)" points="2440,660 2520,660 2520,496 2611,496"/>
  <polyline fill="none" stroke="#55606c" stroke-width="2" marker-end="url(#arrow)" points="2700,680 2760,680 2760,400 2880,400"/>
  <polyline fill="none" stroke="#55606c" stroke-width="2" marker-end="url(#arrow)" points="2980,400 3020,400 3020,980 2560,980 2560,480 2645,480"/>
  <polyline fill="none" stroke="#55606c" stroke-width="2" marker-end="url(#arrow)" points="2644,491 2720,491 2720,559 2886,559"/>
  <polyline fill="none" stroke="#55606c" stroke-width="2" marker-end="url(#arrow)" points="2923,558 2980,558 2980,460 3140,460"/>
  <polyline fill="none" stroke="#55606c" stroke-width="2" marker-end="url(#arrow)" points="2925,570 3000,570 3000,620 3145,620"/>
  <polyline fill="none" stroke="#55606c" stroke-width="2" marker-end="url(#arrow)" points="3240,460 3300,460 3300,673 3432,673"/>
  <polyline fill="none" stroke="#55606c" stroke-width="2" marker-end="url(#arrow)" points="3184,619 3260,619 3260,520 3420,520"/>
  <polyline fill="none" stroke="#55606c" stroke-width="2" marker-end="url(#arrow)" points="3180,635 3280,635 3280,840 3420,840"/>
  <polyline fill="none" stroke="#55606c" stroke-width="2" marker-end="url(#arrow)" points="3520,520 3580,520 3580,791 3694,791"/>
  <polyline fill="none" stroke="#55606c" stroke-width="2" marker-end="url(#arrow)" points="3520,840 3600,840 3600,640 3680,640"/>
  <polyline fill="none" stroke="#55606c" stroke-width="2" marker-end="url(#arrow)" points="3780,640 3860,640 3860,783 3708,783"/>
  <polyline fill="none" stroke="#55606c" stroke-width="2" marker-end="url(#arrow)" points="3688,797 3800,797 3800,1080 3360,1080 3360,693 3462,693"/>
  <polyline fill="none" stroke="#55606c" stroke-width="2" marker-end="url(#arrow)" points="3470,685 3560,685 3560,680 3860,680"/>
  <circle cx="138" cy="218" r="18" fill="#ffffff" stroke="#203040" stroke-width="3"/>
  <text x="138" y="258" font-family="Segoe UI, Arial, sans-serif" font-size="12" text-anchor="middle" fill="#203040">Default_init</text>
  <rect x="320" y="220" width="100" height="80" rx="12" ry="12" fill="#f6fbff" stroke="#2b5876" stroke-width="2"/>
  <text x="370" y="322" font-family="Segoe UI, Arial, sans-serif" font-size="12" text-anchor="middle" fill="#203040">Chegada do paciente</text>
  <polygon points="625,400 650,425 625,450 600,425" fill="#fff7e0" stroke="#8a6d1f" stroke-width="2"/>
  <text x="625" y="472" font-family="Segoe UI, Arial, sans-serif" font-size="12" text-anchor="middle" fill="#203040">PAR</text>
  <rect x="820" y="320" width="100" height="80" rx="12" ry="12" fill="#f6fbff" stroke="#2b5876" stroke-width="2"/>
  <text x="870" y="422" font-family="Segoe UI, Arial, sans-serif" font-size="12" text-anchor="middle" fill="#203040">Registro administrativo</text>
  <rect x="820" y="500" width="100" height="80" rx="12" ry="12" fill="#f6fbff" stroke="#2b5876" stroke-width="2"/>
  <text x="870" y="602" font-family="Segoe UI, Arial, sans-serif" font-size="12" text-anchor="middle" fill="#203040">Triagem inicial de enfermagem</text>
  <polygon points="1105,440 1130,465 1105,490 1080,465" fill="#fff7e0" stroke="#8a6d1f" stroke-width="2"/>
  <text x="1105" y="512" font-family="Segoe UI, Arial, sans-serif" font-size="12" text-anchor="middle" fill="#203040">PAR</text>
  <rect x="1080" y="580" width="100" height="80" rx="12" ry="12" fill="#f6fbff" stroke="#2b5876" stroke-width="2"/>
  <text x="1130" y="682" font-family="Segoe UI, Arial, sans-serif" font-size="12" text-anchor="middle" fill="#203040">Médico analisa os sintomas</text>
  <rect x="1360" y="360" width="100" height="80" rx="12" ry="12" fill="#f6fbff" stroke="#2b5876" stroke-width="2"/>
  <text x="1410" y="462" font-family="Segoe UI, Arial, sans-serif" font-size="12" text-anchor="middle" fill="#203040">Tratar autorização do convênio</text>
  <rect x="1360" y="540" width="100" height="80" rx="12" ry="12" fill="#f6fbff" stroke="#2b5876" stroke-width="2"/>
  <text x="1410" y="642" font-family="Segoe UI, Arial, sans-serif" font-size="12" text-anchor="middle" fill="#203040">Monitorar custos e aprovações</text>
  <rect x="1360" y="720" width="100" height="80" rx="12" ry="12" fill="#f6fbff" stroke="#2b5876" stroke-width="2"/>
  <text x="1410" y="822" font-family="Segoe UI, Arial, sans-serif" font-size="12" text-anchor="middle" fill="#203040">Preparar procedimentos de Int...</text>
  <rect x="1620" y="700" width="100" height="80" rx="12" ry="12" fill="#f6fbff" stroke="#2b5876" stroke-width="2"/>
  <text x="1670" y="802" font-family="Segoe UI, Arial, sans-serif" font-size="12" text-anchor="middle" fill="#203040">Administrar medicação inicial</text>
  <polygon points="1645,560 1670,585 1645,610 1620,585" fill="#fff7e0" stroke="#8a6d1f" stroke-width="2"/>
  <text x="1645" y="632" font-family="Segoe UI, Arial, sans-serif" font-size="12" text-anchor="middle" fill="#203040">PARCLOSE19</text>
  <polygon points="1925,580 1950,605 1925,630 1900,605" fill="#fff7e0" stroke="#8a6d1f" stroke-width="2"/>
  <text x="1925" y="652" font-family="Segoe UI, Arial, sans-serif" font-size="12" text-anchor="middle" fill="#203040">PARCLOSE20</text>
  <polygon points="2145,520 2170,545 2145,570 2120,545" fill="#fff7e0" stroke="#8a6d1f" stroke-width="2"/>
  <text x="2145" y="592" font-family="Segoe UI, Arial, sans-serif" font-size="12" text-anchor="middle" fill="#203040">PAR</text>
  <rect x="2340" y="440" width="100" height="80" rx="12" ry="12" fill="#f6fbff" stroke="#2b5876" stroke-width="2"/>
  <text x="2390" y="542" font-family="Segoe UI, Arial, sans-serif" font-size="12" text-anchor="middle" fill="#203040">Solicitar exames</text>
  <rect x="2340" y="620" width="100" height="80" rx="12" ry="12" fill="#f6fbff" stroke="#2b5876" stroke-width="2"/>
  <text x="2390" y="722" font-family="Segoe UI, Arial, sans-serif" font-size="12" text-anchor="middle" fill="#203040">Tratamento em andamento</text>
  <rect x="2600" y="640" width="100" height="80" rx="12" ry="12" fill="#f6fbff" stroke="#2b5876" stroke-width="2"/>
  <text x="2650" y="742" font-family="Segoe UI, Arial, sans-serif" font-size="12" text-anchor="middle" fill="#203040">Processar/realizar exames</text>
  <rect x="2880" y="360" width="100" height="80" rx="12" ry="12" fill="#f6fbff" stroke="#2b5876" stroke-width="2"/>
  <text x="2930" y="462" font-family="Segoe UI, Arial, sans-serif" font-size="12" text-anchor="middle" fill="#203040">Revisar diagnóstico</text>
  <polygon points="2625,460 2650,485 2625,510 2600,485" fill="#fff7e0" stroke="#8a6d1f" stroke-width="2"/>
  <text x="2625" y="532" font-family="Segoe UI, Arial, sans-serif" font-size="12" text-anchor="middle" fill="#203040">PARCLOSE26</text>
  <polygon points="2905,540 2930,565 2905,590 2880,565" fill="#fff7e0" stroke="#8a6d1f" stroke-width="2"/>
  <text x="2905" y="612" font-family="Segoe UI, Arial, sans-serif" font-size="12" text-anchor="middle" fill="#203040">PAR</text>
  <rect x="3140" y="420" width="100" height="80" rx="12" ry="12" fill="#f6fbff" stroke="#2b5876" stroke-width="2"/>
  <text x="3190" y="522" font-family="Segoe UI, Arial, sans-serif" font-size="12" text-anchor="middle" fill="#203040">Preparar procedimentos de alta</text>
  <polygon points="3165,600 3190,625 3165,650 3140,625" fill="#fff7e0" stroke="#8a6d1f" stroke-width="2"/>
  <text x="3165" y="672" font-family="Segoe UI, Arial, sans-serif" font-size="12" text-anchor="middle" fill="#203040">G1</text>
  <rect x="3420" y="480" width="100" height="80" rx="12" ry="12" fill="#f6fbff" stroke="#2b5876" stroke-width="2"/>
  <text x="3470" y="582" font-family="Segoe UI, Arial, sans-serif" font-size="12" text-anchor="middle" fill="#203040">Consultar especialista</text>
  <rect x="3420" y="800" width="100" height="80" rx="12" ry="12" fill="#f6fbff" stroke="#2b5876" stroke-width="2"/>
  <text x="3470" y="902" font-family="Segoe UI, Arial, sans-serif" font-size="12" text-anchor="middle" fill="#203040">Solicitar exames adicionais</text>
  <rect x="3680" y="600" width="100" height="80" rx="12" ry="12" fill="#f6fbff" stroke="#2b5876" stroke-width="2"/>
  <text x="3730" y="702" font-family="Segoe UI, Arial, sans-serif" font-size="12" text-anchor="middle" fill="#203040">Entregar orientações finais</text>
  <polygon points="3705,780 3730,805 3705,830 3680,805" fill="#fff7e0" stroke="#8a6d1f" stroke-width="2"/>
  <text x="3705" y="852" font-family="Segoe UI, Arial, sans-serif" font-size="12" text-anchor="middle" fill="#203040">XORCLOSE33</text>
  <polygon points="3445,660 3470,685 3445,710 3420,685" fill="#fff7e0" stroke="#8a6d1f" stroke-width="2"/>
  <text x="3445" y="732" font-family="Segoe UI, Arial, sans-serif" font-size="12" text-anchor="middle" fill="#203040">PARCLOSE34</text>
  <circle cx="3878" cy="678" r="18" fill="#ffffff" stroke="#203040" stroke-width="3"/>
  <text x="3878" y="718" font-family="Segoe UI, Arial, sans-serif" font-size="12" text-anchor="middle" fill="#203040">END_EVENT</text>
</svg>
